<svg width="126" height="44" viewBox="0 0 126 44" fill="none" xmlns="http://www.w3.org/2000/svg"><path d="M37.9 1.6c-1.4.3-2.7.8-3.6 1.5a7 7 0 00-2.8 4.3c-.3 1-.3 1.6-.3 12 0 12.3 0 12.2 1 14.3 1.4 2.8 3.7 4 7.4 4 6 0 9.7-3.1 10.2-8.8a239 239 0 00-.2-21.7c-.4-1.4-1-2.5-2-3.4C46 2.2 44.1 1.5 41 1.4c-1.3 0-2.3 0-3 .2zm3.8 4.8c.8.2 1.6 1 1.8 1.7.2 1 .2 21 0 21.9-.5 1.3-1.4 2-3 2.1-1.6.2-2.7-.6-3-2l-.1-11.3V8.3l.3-.6c.5-1 1.4-1.4 2.8-1.4l1.2.1zM113.2 1.5C110 2.2 108 4 107 6.8c-.4 1-.4 1.4-.5 3 0 1.8 0 2.3.3 3.4.6 2.7 2 4.7 5.9 8.6 3.7 3.7 4.6 5 5.3 7 .3.8.3 1.3.3 2.4v1.7c-.2.8-.7 1.5-1.2 1.8-.5.3-.7.3-1.6.2-1.4-.1-2.4-.7-3-1.9-.2-.5-.4-2.3-.4-4v-1.2l-1.8-.2-3-.3h-1.1v2.2c.2 4.6 1.3 7.1 3.8 9.3 3.1 2.7 8.8 3.3 11.4 1.3 1.4-1 2.2-2.3 2.8-4.4.3-1.2.3-1.7.3-3.9 0-3-.2-4.1-1.3-6.4-1-2.2-2.1-3.6-5.3-6.8-3-3-4-4.1-4.6-5.4-1-2.1-.8-4.8.3-5.9 1-1 3.4-.8 4.3.3.5.6.7 1.3.8 3V12l1.7.1 3 .2h1.2v-.5c0-1.4-.3-3.7-.6-4.7a7.5 7.5 0 00-5.5-5.3c-1-.2-4.2-.4-5.3-.2zM1.4 22c0 16 0 20.2.2 20.2l2.7-.5 2.5-.4V27L7 12.7l1.2 7.4 3 18.7.3 1.7 5.8-.9 1-6.6 3.1-20.7c.1-.2.2 5.4.2 13.2v13.7l.4-.1 2.5-.3 2.5-.3h.4V1.7h-8.6v.3A1523.3 1523.3 0 0014.4 28l-.5-2.6-3.8-22.8-.2-.7H1.4V22zM52.1 2l.8 4.3c2 10.9 3.5 20 4.5 26.1l.7 3.9v.3h9.2l.7-4.5a1977 1977 0 015.2-30l.1-.3H67.6v.4A2919.9 2919.9 0 0063 29.5l-.4-2.1-2.1-13c-1-5.8-2-11.1-2-11.7l-.2-.9h-3c-2 0-3.2 0-3.2.2zM76.1 19.3v17.4l.4.1 3 .2h2.7V1.9h-6.1v17.5zM86.7 19.6v17.8l1.5.1 14.7 1.4.5.1v-3c0-2.7 0-2.9-.2-2.9a245.8 245.8 0 01-9.1-.7l-1.3-.1V21.4h.3a274.5 274.5 0 017.8.5h.4v-5.1l-.9-.1a77.5 77.5 0 00-7.1-.4h-.5V6.6l5.3.1 5.3.2V1.8H86.7v17.8z" fill="#E50914"/></svg>
