<svg viewBox="0 0 24 24" width="24" height="24" fill="none" xmlns="http://www.w3.org/2000/svg"><path fill-rule="evenodd" clip-rule="evenodd" d="M12 3c2.44 0 2.75.01 3.71.06.96.04 1.61.2 2.18.41.6.23 1.15.59 1.6 1.04.5.5.8 1 1.04 1.6.22.57.37 1.22.41 2.18.05.96.06 1.27.06 3.71s-.01 2.75-.06 3.71c-.04.96-.2 1.61-.41 2.18-.23.6-.59 1.15-1.04 1.6-.5.5-1 .8-1.6 1.03-.57.23-1.22.38-2.18.42-.96.05-1.27.06-3.71.06s-2.75-.01-3.71-.06a6.62 6.62 0 01-2.18-.42 4.4 4.4 0 01-1.6-1.03c-.45-.45-.8-1-1.03-1.6a6.63 6.63 0 01-.42-2.18C3 14.75 3 14.44 3 12s.01-2.75.06-3.71c.04-.96.2-1.61.42-2.18.22-.6.58-1.15 1.03-1.6.45-.45 1-.8 1.6-1.04a6.62 6.62 0 012.18-.41C9.25 3 9.56 3 12 3zm0 1.8c-2.35 0-2.63 0-3.55.05-.86.04-1.32.18-1.63.3-.41.16-.7.35-1.01.66-.3.28-.52.63-.66 1-.12.32-.26.78-.3 1.64-.04.92-.05 1.2-.05 3.55 0 2.34 0 2.62.05 3.54.04.86.18 1.33.3 1.63.16.41.35.7.66 1.01.3.31.6.5 1 .66.32.12.78.27 1.64.3.92.05 1.2.06 3.55.06 2.34 0 2.62-.01 3.55-.06a4.85 4.85 0 001.63-.3c.4-.16.7-.35 1-.66.31-.3.5-.6.66-1 .12-.31.27-.78.3-1.64.05-.92.06-1.2.06-3.54 0-2.35-.01-2.63-.05-3.55a4.85 4.85 0 00-.3-1.63 2.72 2.72 0 00-.66-1.01c-.29-.3-.63-.52-1.01-.66-.31-.12-.78-.26-1.63-.3-.93-.05-1.2-.05-3.55-.05zm0 2.4a4.8 4.8 0 110 9.6 4.8 4.8 0 010-9.6zm0 7.8a3 3 0 100-6 3 3 0 000 6zm5.88-7.8a1.08 1.08 0 11-2.16 0 1.08 1.08 0 112.16 0z" fill="#000"/></svg>
