<svg viewBox="0 0 24 24" width="24" height="24" fill="none" xmlns="http://www.w3.org/2000/svg"><path fill-rule="evenodd" clip-rule="evenodd" d="M8.29 20c-2.32 0-4.47-.67-6.29-1.82a8.33 8.33 0 006.07-1.67 4.1 4.1 0 01-3.83-2.8c.62.11 1.25.1 1.85-.07-1.87-.37-3.29-2-3.29-3.96v-.05c.57.3 1.21.48 1.86.5A4.02 4.02 0 013.4 4.74a11.71 11.71 0 008.46 4.22 4.07 4.07 0 014-4.96c1.18 0 2.24.49 3 1.28a8.3 8.3 0 002.6-.99 4.07 4.07 0 01-1.8 2.24c.8-.1 1.6-.3 2.35-.64A8.27 8.27 0 0119.95 8l.01.52A11.5 11.5 0 018.3 20z" fill="#000"/></svg>
