<svg width="44" height="44" viewBox="0 0 44 44" fill="none" xmlns="http://www.w3.org/2000/svg"><path d="M17.97 15.46a3.03 3.03 0 00-1.44-3.04 2.98 2.98 0 00-3.65.46 3.01 3.01 0 00.59 4.7 2.98 2.98 0 003.65-.46 3 3 0 00.85-1.66z" fill="#000"/><path fill-rule="evenodd" clip-rule="evenodd" d="M13.5 2.5c-3.5 0-5.1.3-6.7 1.1a7.7 7.7 0 00-3.2 3.2c-.8 1.7-1.1 3.2-1.1 6.7v17c0 3.5.3 5.1 1.1 6.7a7.7 7.7 0 003.2 3.2c1.7.8 3.2 1.1 6.7 1.1h17c3.5 0 5.1-.3 6.7-1.1a7.7 7.7 0 003.2-3.2c.8-1.7 1.1-3.2 1.1-6.7v-17c0-3.5-.3-5.1-1.1-6.7a7.7 7.7 0 00-3.2-3.2c-1.7-.8-3.2-1.1-6.7-1.1h-17zM8.2 6.3c1-.5 1.9-.8 5.3-.8h17c3.4 0 4.3.3 5.2.7a4.7 4.7 0 012 2c.5 1 .8 1.9.8 5.3v16.02l-8.72-7.97-.48-.45a2 2 0 00-2.9.2l-7.2 8.8-3.94-3.15.04-.05a2 2 0 00-1.23-.39 1.97 1.97 0 00-1.47.59L5.7 34c-.13-.77-.2-1.84-.2-3.5v-17c0-3.4.3-4.3.7-5.2a4.7 4.7 0 012-2zm8.33 25.57l-2.35-1.85L7.2 37c.32.32.7.59 1.1.8.9.4 1.8.7 5.2.7h17c3.4 0 4.3-.3 5.3-.8a4.7 4.7 0 002-2c.25-.56.46-1.11.58-2.26l-10.32-9.26-2.91 3.55L21 33a2 2 0 01-2.8.2l-.06-.05-.04.05.03-.06-1.6-1.27z" fill="#000"/></svg>
